<?xml version="1.0" encoding="utf-8"?>
<!-- Generator: Adobe Illustrator 16.0.4, SVG Export Plug-In . SVG Version: 6.00 Build 0)  -->
<!DOCTYPE svg PUBLIC "-//W3C//DTD SVG 1.1//EN" "http://www.w3.org/Graphics/SVG/1.1/DTD/svg11.dtd">
<svg version="1.1" id="Layer_1" xmlns="http://www.w3.org/2000/svg" xmlns:xlink="http://www.w3.org/1999/xlink" x="0px" y="0px"
	 width="194.703px" height="45.375px" viewBox="0 -23.625 194.703 45.375" enable-background="new 0 -23.625 194.703 45.375"
	 xml:space="preserve">
<g>
	<path fill="#FFFFFF" d="M178.713-13.315c5.092,2.278,5.488,4.812,5.488,7.48c0,9.024-32.282,15.15-74.733,16.039v-26.651
		c0-0.51-0.416-0.923-0.918-0.923c-0.512,0-0.929,0.415-0.929,0.923v26.69c-2.845,0.048-5.736,0.071-8.661,0.071
		c-3.692,0-7.328-0.038-10.894-0.12v-26.641c0-0.51-0.411-0.923-0.924-0.923s-0.926,0.415-0.926,0.923v26.599
		C45.463,9.082,14.396,3.02,14.396-5.835c0-2.67,0.392-5.203,5.485-7.48c-7.362,3.089-9.128,5.426-9.128,9.236
		c0,11.602,39.548,20.694,87.896,20.775v0.006c0.101,0,0.204-0.006,0.31-0.006c0.102,0,0.204,0.006,0.305,0.006v-0.006
		c49.026-0.075,88.58-9.173,88.58-20.775C187.843-7.889,186.079-10.228,178.713-13.315z"/>
	<g>
		<path fill="#FFFFFF" d="M32.557-1.69v-12.304l-1.142-1.17h8.761v2.656l-1.567-1.565h-4.439v5.111h3.299l1.167-1.164v3.424
			l-1.167-1.169h-3.299v6.177l1.166,1.167h-3.92L32.557-1.69z"/>
		<path fill="#FFFFFF" d="M45.37-1.69v-12.304l-1.142-1.17h3.921l-1.17,1.169v12.28h3.502l1.59-1.589v2.781h-7.843L45.37-1.69z"/>
		<path fill="#FFFFFF" d="M56.014-0.526l1.143-1.167v-12.301l-1.143-1.168h8.758v2.656l-1.563-1.565h-4.439v5.209h3.301l1.164-1.163
			v3.42l-1.164-1.167h-3.301v6.152h4.439l1.563-1.585v2.678H56.014z"/>
		<path fill="#FFFFFF" d="M68.708-15.165h3.174v1.117l2.729,4.693l2.973-4.668l-1.138-1.14h3.723l-1.193,1.195l-3.672,5.803
			l3.801,6.45l1.16,1.189H77.09v-1.117l-2.848-4.886l-3.056,4.861l1.144,1.14h-3.723l1.193-1.189l3.774-5.953l-3.676-6.298
			L68.708-15.165z"/>
		<path fill="#FFFFFF" d="M94.404-2.088l1.589,1.563h-4.866l1.571-1.563V-13.6l-1.571-1.564H95.2l6.085,8.734v-7.17l-1.57-1.564
			h4.838l-1.561,1.564V1.186l-8.588-12.403V-2.088z"/>
		<path fill="#FFFFFF" d="M123.877-8.343h3.92l-1.145,1.167v5.781c-0.793,0.524-1.762,1.067-4.02,1.067
			c-3.992,0-6.79-3.646-6.79-7.514c0-3.946,2.798-7.517,6.79-7.517c1.661,0,2.536,0.395,3.404,0.843v2.528l-1.612-1.588
			c-0.497-0.518-1.044-0.692-1.792-0.692c-2.83,0-4.881,3.25-4.881,6.426c0,3.15,1.637,6.421,4.881,6.421
			c1.366,0,2.061-0.69,2.407-1.038v-4.718L123.877-8.343z"/>
		<path fill="#FFFFFF" d="M134.194-0.526h-3.521l1.188-1.189l4.639-13.449h0.746l4.562,13.449l1.168,1.189h-4.141l1.14-1.14
			l-1.02-3.103h-4.836l-1.068,3.103L134.194-0.526z M134.487-5.858h4.098l-2.015-6.058L134.487-5.858z"/>
		<path fill="#FFFFFF" d="M151.635-0.526h-3.917l1.139-1.167v-12.378h-2.756l-1.583,1.565v-2.658h10.292v2.656l-1.566-1.565h-2.777
			V-1.69L151.635-0.526z"/>
		<path fill="#FFFFFF" d="M158.427-0.526l1.145-1.167v-12.301l-1.145-1.168h8.756v2.656l-1.562-1.565h-4.439v5.209h3.298
			l1.166-1.163v3.42l-1.166-1.167h-3.298v6.152h4.439l1.562-1.585v2.678H158.427z"/>
	</g>
</g>
</svg>
